<svg xmlns="http://www.w3.org/2000/svg" viewBox="0 0 64 64"><circle cx="32" cy="32" r="32" fill="#e6d5d7"/><circle cx="32" cy="34" r="17" fill="#e8c9a4" stroke="#2b2a27" stroke-width="2.4" stroke-linecap="round" stroke-linejoin="round"/><path d="M16.5 30 q2 -13 15.5 -13 q13.5 0 15.5 13 q-3 4 -5 1 q-2 4 -5 1 q-3 4 -5.5 .5 q-3 4 -5.5 .5 q-3 3.5 -5.5 -.5 q-2.5 3 -4.5 -2.5z" fill="#c4452d" stroke="#2b2a27" stroke-width="2.4" stroke-linejoin="round"/><circle cx="32" cy="34" r="5" fill="#e6d5d7" stroke="#2b2a27" stroke-width="2.4" stroke-linecap="round" stroke-linejoin="round"/><path d="M22 22 l3 1 M38 21 l2.5 -2 M44 27 l1 3 M28 19.5 l2 -1" stroke="#f7f4ec" stroke-width="2" stroke-linecap="round"/><circle cx="26" cy="43.5" r="1.9" fill="#2b2a27"/><circle cx="38" cy="43.5" r="1.9" fill="#2b2a27"/><ellipse cx="22" cy="46" rx="2.6" ry="1.5" fill="#c4452d" opacity=".35"/><ellipse cx="42" cy="46" rx="2.6" ry="1.5" fill="#c4452d" opacity=".35"/></svg>
